<?xml version="1.0" standalone="no"?>
<!DOCTYPE svg PUBLIC "-//W3C//DTD SVG 20010904//EN" "http://www.w3.org/TR/2001/REC-SVG-20010904/DTD/svg10.dtd">
<!-- Created using Karbon, part of Calligra: http://www.calligra.org/karbon -->
<svg xmlns="http://www.w3.org/2000/svg" xmlns:xlink="http://www.w3.org/1999/xlink" width="226.768pt" height="226.768pt">
<defs/>
<g id="layer0">
  <g id="Livello_1" transform="translate(13.4663, 13.4732)" fill="none">
   <g id="group0" transform="" fill="none">
    <g id="group1" transform="" fill="none">
     <path id="shape0" transform="translate(0.622065, 0.615268)" fill="#52ae32" d="M205.755 145.521C203.603 153.521 204.134 150.9 203.241 154.25C202.842 155.698 202.864 155.597 203.302 153.954C201.597 157.474 202.476 157.102 198.707 165.229C193.227 175.956 191.51 176.904 184.593 183.427C165.592 201.35 144.335 207.953 118.44 205.652C98.2461 203.856 81.8003 192.977 69.1072 178.849C64.653 173.895 59.1136 164.267 55.4347 156.242C56.0794 157.646 53.1781 149.409 52.5727 147.383C51.8492 144.958 51.2931 142.484 50.7418 140.017C50.6803 139.737 49.4007 131.734 50.0429 136.839C47.9438 120.161 50.8132 107.084 56.9973 94.2589C65.7063 76.2037 78.36 64.2315 96.7475 55.2504C136.818 35.6788 192.884 65.2336 205.521 106.146C214.823 136.244 260.072 117.821 250.716 87.5391C231.233 24.4709 162.873 -10.7183 99.7423 2.91495C44.9317 14.75 7.92051 62.2961 0.855396 115.896C-5.54035 164.417 24.6888 215.309 66.1295 239.046C122.225 271.173 194.023 253.767 232.232 203.212C243.503 188.303 250.393 170.154 254.257 152.102C257.758 124.983 251.461 180.434 256.38 131.693C256.586 27.6502 186.43 53.6659 204.349 103.099C206.998 116.863 207.511 125.01 206.662 136.724"/>
    </g>
   </g>
  </g>
 </g><g id="eye">
  <g id="group01" transform="translate(249.176, 72.4504)" fill="none">
   <path id="shape4" transform="translate(3.62835, 4.19085)" fill="none" stroke="#000000" stroke-width="3.62835274240" stroke-linecap="round" stroke-linejoin="round" d="M0 21.3794C0 12.1459 5.92344 4.73771 17.1542 0"/>
   <path id="shape3" transform="translate(1.44909, 14.6596)" fill="#000000" d="M20.3142 9.67061C20.3142 4.32968 15.7667 3.27038e-16 10.1571 0C4.54749 -3.27038e-16 6.8698e-16 4.32968 0 9.67061C-6.8698e-16 15.0115 4.54749 19.3412 10.1571 19.3412C15.7667 19.3412 20.3142 15.0115 20.3142 9.67061"/>
  </g>
  <g id="group11" transform="translate(249.176, 72.4414)" fill="none">
   <path id="shape41" transform="translate(3.62835, 4.19983)" fill="none" stroke="#000000" stroke-width="3.62835274240" stroke-linecap="round" stroke-linejoin="round" d="M0 21.5095C0 12.2199 5.8064 4.76655 16.8153 0"/>
   <path id="shape31" transform="translate(1.44909, 14.6686)" fill="#000000" d="M20.3142 9.67061C20.3142 4.32968 15.7667 3.27038e-16 10.1571 0C4.54749 -3.27038e-16 6.8698e-16 4.32968 0 9.67061C-6.8698e-16 15.0115 4.54749 19.3412 10.1571 19.3412C15.7667 19.3412 20.3142 15.0115 20.3142 9.67061"/>
  </g>
  <g id="group2" transform="translate(249.176, 72.4491)" fill="none">
   <path id="shape42" transform="translate(3.62835, 4.19221)" fill="none" stroke="#000000" stroke-width="3.62835274240" stroke-linecap="round" stroke-linejoin="round" d="M0 21.7722C0 12.3692 6.0084 4.82477 17.4004 0"/>
   <path id="shape32" transform="translate(1.44909, 14.661)" fill="#000000" d="M20.3142 9.67061C20.3142 4.32968 15.7667 3.27038e-16 10.1571 0C4.54749 -3.27038e-16 6.8698e-16 4.32968 0 9.67061C-6.8698e-16 15.0115 4.54749 19.3412 10.1571 19.3412C15.7667 19.3412 20.3142 15.0115 20.3142 9.67061"/>
  </g>
  <g id="group3" transform="translate(202.926, 72.4491)" fill="none">
   <path id="shape43" transform="translate(3.62835, 4.19221)" fill="none" stroke="#000000" stroke-width="3.62835274240" stroke-linecap="round" stroke-linejoin="round" d="M0 21.7722C0 12.3692 6.0084 4.82477 17.4004 0"/>
   <path id="shape33" transform="translate(1.44909, 14.661)" fill="#000000" d="M20.3142 9.67061C20.3142 4.32968 15.7667 3.27038e-16 10.1571 0C4.54749 -3.27038e-16 6.8698e-16 4.32968 0 9.67061C-6.8698e-16 15.0115 4.54749 19.3412 10.1571 19.3412C15.7667 19.3412 20.3142 15.0115 20.3142 9.67061"/>
  </g>
 </g>
</svg>
