<?xml version="1.0" encoding="UTF-8"?>
<svg version="1.1" xmlns="http://www.w3.org/2000/svg" width="256" height="256" viewBox="0 0 256 256">
<path d="M0 0 C34.91449849 -0.90393524 68.80998919 11.75156708 94.41796875 35.44921875 C103.98873585 44.57355472 111.55569001 54.46603866 117.80859375 66.15625 C118.47246094 65.723125 119.13632813 65.29 119.8203125 64.84375 C120.70332031 64.286875 121.58632812 63.73 122.49609375 63.15625 C123.36621094 62.599375 124.23632812 62.0425 125.1328125 61.46875 C127.97832712 60.07299392 129.68745315 59.88631352 132.80859375 60.15625 C132.625 62.44921875 132.625 62.44921875 131.80859375 65.15625 C129.5234375 66.95703125 129.5234375 66.95703125 126.74609375 68.46875 C125.82699219 68.98050781 124.90789062 69.49226563 123.9609375 70.01953125 C123.25066406 70.39464844 122.54039062 70.76976563 121.80859375 71.15625 C122.90171875 71.56875 123.99484375 71.98125 125.12109375 72.40625 C128.33753822 73.81263058 130.2575956 74.87178333 131.80859375 78.15625 C132.34863311 83.10661082 131.92155334 86.2051859 128.80859375 90.15625 C128.14859375 90.15625 127.48859375 90.15625 126.80859375 90.15625 C127.00195312 90.69507812 127.1953125 91.23390625 127.39453125 91.7890625 C137.17497978 122.67978608 131.67318181 158.76349153 116.99609375 187.09375 C112.99637788 194.56093726 108.53375316 200.890211 102.80859375 207.15625 C102.13699219 207.96835938 101.46539062 208.78046875 100.7734375 209.6171875 C80.39539115 233.76612467 48.7128354 248.44346009 17.62109375 251.78125 C-16.71312804 254.36709097 -48.49104235 245.32602871 -74.83984375 222.90234375 C-77.33370574 220.69623507 -79.76783985 218.43914505 -82.19140625 216.15625 C-82.91714844 215.5065625 -83.64289063 214.856875 -84.390625 214.1875 C-106.35692904 193.68035799 -119.63741371 161.88629044 -121.4296875 132.2109375 C-122.2796931 100.3833735 -110.87703856 68.3317896 -90.19140625 44.15625 C-89.3509375 43.15335938 -88.51046875 42.15046875 -87.64453125 41.1171875 C-67.04143803 17.18554669 -38.98650308 4.17085477 -7.94140625 0.40625 C-5.29582886 0.22473526 -2.64875526 0.12968202 0 0 Z M-50.19140625 73.15625 C-50.8771875 73.80722656 -51.56296875 74.45820312 -52.26953125 75.12890625 C-66.04637927 89.20407185 -71.90045475 108.52572637 -71.72851562 127.81762695 C-70.95835765 149.73503926 -60.7187681 169.54084513 -44.7578125 184.42578125 C-25.71855364 200.35783307 -6.28249232 203.47573981 17.80859375 202.15625 C34.9204646 200.26374051 49.55482779 190.59885117 61.80859375 179.15625 C62.87207031 178.23005859 62.87207031 178.23005859 63.95703125 177.28515625 C74.89773422 167.32386118 80.91378489 149.95854397 82.01318359 135.45776367 C82.11166908 132.64542808 82.13732094 129.84523583 82.12109375 127.03125 C82.1169043 126.03222656 82.11271484 125.03320312 82.10839844 124.00390625 C81.93912293 112.78130007 81.17507625 101.71772002 74.80859375 92.15625 C73.04641364 90.86410981 73.04641364 90.86410981 71.18359375 90.28125 C67.80859375 88.15625 67.80859375 88.15625 67.1953125 86.1953125 C67.03482422 85.06222656 67.03482422 85.06222656 66.87109375 83.90625 C65.50051248 75.41972151 57.77854746 70.91081129 51.24609375 66.09375 C18.41937073 42.83946043 -21.24852061 44.36306894 -50.19140625 73.15625 Z " fill="#51AD31" transform="translate(121.19140625,1.84375)"/>
<path d="M0 0 C-0.18359375 2.29296875 -0.18359375 2.29296875 -1 5 C-3.28515625 6.80078125 -3.28515625 6.80078125 -6.0625 8.3125 C-6.98160156 8.82425781 -7.90070313 9.33601563 -8.84765625 9.86328125 C-9.55792969 10.23839844 -10.26820313 10.61351563 -11 11 C-9.906875 11.4125 -8.81375 11.825 -7.6875 12.25 C-4.47105553 13.65638058 -2.55099815 14.71553333 -1 18 C-0.58499925 21.80417358 -0.69541932 24.2786247 -2.1875 27.8125 C-4.38472158 30.46431915 -5.64304765 31.23705628 -9 32 C-13.32498043 31.92276821 -15.41272847 31.44683703 -18.875 28.8125 C-21.38654563 25.48839549 -22.15758702 24.17605607 -22 20 C-18.54915668 10.72207475 -11.52019664 -1.39638747 0 0 Z " fill="#010200" transform="translate(254,62)"/>
<path d="M0 0 C0 0.99 0 1.98 0 3 C-0.61488281 3.32613281 -1.22976562 3.65226562 -1.86328125 3.98828125 C-3.07564453 4.64376953 -3.07564453 4.64376953 -4.3125 5.3125 C-5.11300781 5.74175781 -5.91351563 6.17101562 -6.73828125 6.61328125 C-8.83787272 7.90059554 -10.35447721 9.18406708 -12 11 C-10.39125 11.37125 -10.39125 11.37125 -8.75 11.75 C-4.91165441 13.02944853 -3.24597224 13.67596108 -1 17 C-0.41952634 20.9907564 -0.59848166 23.21442063 -2.4375 26.8125 C-5.97869017 29.83546722 -9.33400618 30.97578204 -14 31 C-17.27845101 29.3607745 -19.34473107 28.31053785 -21 25 C-21.80103742 18.45819444 -19.79295111 14.15732201 -16 9 C-11.29448082 4.0894879 -7.02002233 0 0 0 Z " fill="#010301" transform="translate(208,63)"/>
</svg>
