<?xml version="1.0" encoding="UTF-8" standalone="no"?>
<!-- Created with Inkscape (http://www.inkscape.org/) -->
<svg
   xmlns:svg="http://www.w3.org/2000/svg"
   xmlns="http://www.w3.org/2000/svg"
   xmlns:xlink="http://www.w3.org/1999/xlink"
   version="1.0"
   width="128"
   height="128"
   id="svg2">
  <defs
     id="defs4">
    <linearGradient
       id="linearGradient3448">
      <stop
         id="stop3450"
         style="stop-color:#f08300;stop-opacity:1"
         offset="0" />
      <stop
         id="stop3452"
         style="stop-color:#9c4900;stop-opacity:1"
         offset="1" />
    </linearGradient>
    <linearGradient
       x1="224.93123"
       y1="218.43668"
       x2="50.607693"
       y2="167.79004"
       id="linearGradient4212"
       xlink:href="#linearGradient3448"
       gradientUnits="userSpaceOnUse"
       gradientTransform="matrix(0.282308,0,0,0.391288,0.480722,-8.73995)" />
  </defs>
  <path
     d="M 64,114.26643 C 74.784506,107.66424 112.71014,107.91293 124.41443,107.91293 C 124.41443,107.91293 119.19504,25.3622 119.19504,25.3622 C 106.58152,25.75819 77.007133,25.26858 64,30.86857 C 50.992864,25.26858 21.418475,25.75819 8.804955,25.3622 C 8.804955,25.3622 3.585567,107.91293 3.585567,107.91293 C 15.289855,107.91293 53.215488,107.66424 64,114.26643 z"
     id="path2499"
     style="fill:#803300;fill-opacity:1;" />
  <path
     d="M 64,114.26643 C 74.784506,107.66424 106.80848,103.50067 118.51276,103.50067 C 118.51276,103.50067 113.29338,19.74661 113.29338,19.74661 C 100.67985,20.14259 77.007133,25.26858 64,30.86857 C 50.992864,25.26858 27.009529,20.14259 14.396009,19.74661 C 14.396009,19.74661 9.176622,103.50067 9.176622,103.50067 C 20.88091,103.50067 53.215488,107.66424 64,114.26643 z"
     id="path2501"
     style="fill:#d45500;fill-opacity:1;" />
  <path
     d="M 19.989872,13.73358 C 19.989872,13.73358 14.767673,100.28643 14.767673,100.28643 C 26.465124,100.28643 53.183751,107.65098 63.980586,114.25021 L 63.980586,30.85613 C 50.974596,25.25334 32.596964,14.12937 19.989872,13.73358 z"
     id="path2503"
     style="fill:url(#linearGradient4212) #000000;fill-opacity:1;" />
  <path
     d="M 108.01013,13.73358 C 95.403036,14.12937 77.025401,25.25334 64.019414,30.85613 L 64.019414,114.25021 C 74.816252,107.65098 101.53488,100.28643 113.23233,100.28643 C 113.23233,100.28643 108.01013,13.73358 108.01013,13.73358 z"
     id="path2505"
     style="fill:#ffa72a;fill-opacity:1;" />
  <path
     d="M -68.653175,66.424469 C -68.649989,84.798439 -83.544142,99.695175 -101.91811,99.695175 C -120.29208,99.695175 -135.18624,84.798439 -135.18305,66.424469 C -135.18624,48.050499 -120.29208,33.153763 -101.91811,33.153763 C -83.544142,33.153763 -68.649989,48.050499 -68.653175,66.424469 L -68.653175,66.424469 z"
     transform="matrix(0.87234,0,0,0.87234,152.907,11.0096)"
     id="path4199"
     style="opacity:0.5;fill:#552200;" />
  <path
     d="M 59.794874,88.101574 C 59.794864,87.014915 60.168404,86.093192 60.915496,85.336404 C 61.662565,84.579627 62.589138,84.201235 63.69522,84.201228 C 64.762463,84.201235 65.674483,84.579627 66.431283,85.336404 C 67.188049,86.093192 67.56644,87.014915 67.566458,88.101574 C 67.56644,89.168835 67.188049,90.080855 66.431283,90.837637 C 65.674483,91.59442 64.762463,91.972812 63.69522,91.972813 C 62.589138,91.972812 61.662565,91.599271 60.915496,90.852191 C 60.168404,90.105111 59.794864,89.188239 59.794874,88.101574 L 59.794874,88.101574 z M 53.362215,49.592938 C 55.419107,48.68096 57.374129,48.001796 59.227287,47.555444 C 61.080424,47.10918 62.821995,46.886026 64.452003,46.885982 C 68.759828,46.886026 72.160499,47.924177 74.654027,50.000437 C 77.147503,52.076779 78.394254,54.880756 78.394283,58.412376 C 78.394254,62.02168 77.322145,64.971193 75.177954,67.260922 C 73.03371,69.550698 69.797979,71.190394 65.47075,72.180014 L 65.47075,79.573206 L 61.890582,79.573206 L 61.890582,70.026092 C 65.325199,69.191712 67.910873,67.794574 69.647613,65.834676 C 71.384312,63.874828 72.252671,61.381326 72.252694,58.354162 C 72.252671,55.695753 71.5444,53.600047 70.127879,52.067038 C 68.711316,50.534107 66.78055,49.767622 64.335575,49.767581 C 62.123426,49.767622 60.313939,50.403125 58.907109,51.674093 C 57.50026,52.945139 56.593091,54.774031 56.185599,57.160773 L 53.362215,57.160773 L 53.362215,49.592938 z"
     id="text2394"
     style="fill:#ff8f2f;fill-opacity:1;" />
</svg>
